<svg id="сам_логотип" data-name="сам логотип" xmlns="http://www.w3.org/2000/svg" viewBox="0 0 312.27 323.15"><defs><style>.cls-1,.cls-11,.cls-6{fill:#cac9c7;}.cls-1{stroke:#141414;}.cls-1,.cls-10,.cls-13,.cls-14,.cls-15,.cls-2,.cls-3,.cls-6,.cls-8,.cls-9{stroke-miterlimit:10;}.cls-1,.cls-10,.cls-2,.cls-3,.cls-6,.cls-8,.cls-9{stroke-width:4px;}.cls-2{fill:#575756;stroke:#111110;}.cls-3{fill:#161616;stroke:#cac9c7;}.cls-4{fill:#696969;}.cls-10,.cls-13,.cls-5{fill:#515151;}.cls-5{stroke:#515151;stroke-linejoin:round;stroke-width:3px;}.cls-14,.cls-15,.cls-5,.cls-8{stroke-linecap:round;}.cls-10,.cls-13,.cls-15,.cls-6,.cls-8,.cls-9{stroke:#161616;}.cls-15,.cls-7,.cls-8{fill:#9e9e9e;}.cls-9{fill:#a9a9a9;}.cls-12{fill:#333;}.cls-14{fill:#9d9d9c;stroke:#303031;}.cls-14,.cls-15{stroke-width:2px;}</style></defs><path class="cls-1" d="M298.16,250.62c-77.46,0-127.59,48.87-127.59,147.55,0,50.2,2.18,85.52,16.51,124.75a32.84,32.84,0,0,0,19.29,19.18c22.8,8.77,47.79,18.14,95.57,16.7,47.36-1.43,80.5-14.27,109.2-32.44a30.74,30.74,0,0,0,13.8-19.25c7.81-35.49,8.36-58.12,8.36-104.71C433.3,303.71,375.61,250.62,298.16,250.62Z" transform="translate(-145.67 -248.62)"/><path class="cls-2" d="M298.74,564.1c-72.68,0-110.49-22.71-112.12-23.72a8.14,8.14,0,0,1-2.7-11,7.62,7.62,0,0,1,10.62-2.79c.63.37,39.5,23.29,113.19,21.35,79.46-2.09,104-27.35,108.13-32.39a7.59,7.59,0,0,1,10.93-1,8.17,8.17,0,0,1,.94,11.27c-8.76,10.73-38,35.92-119.61,38.08C304.94,564.06,301.8,564.1,298.74,564.1Z" transform="translate(-145.67 -248.62)"/><path class="cls-3" d="M183.3,346s116.15-61.63,235-1.24c0,0,2.58,81-12.65,108.62C397.53,468.14,328,527.56,328,527.56l-37.26-.86s-70.37-45.81-84-72.63S183.3,346,183.3,346Z" transform="translate(-145.67 -248.62)"/><path class="cls-4" d="M195.91,350.65S315.75,310.31,402,348.87c0,0,2.38,58.87-9,80.17-10,18.72-38.35,47.23-41.95,46.21s-21.77-16.6-41.46-17.36c-20.64-.8-47.82,19.49-47.82,19.49-16-11.58-37.41-29.2-45.5-44.76C202.44,405.94,200.31,378,195.91,350.65Z" transform="translate(-145.67 -248.62)"/><line class="cls-5" x1="41.32" y1="99.34" x2="32.54" y2="89.53"/><line class="cls-5" x1="269.97" y1="97.63" x2="276.91" y2="87.06"/><path class="cls-6" d="M253.11,535.15s20.22-41,36.28-44,30.33-3,42.23,0,32.11,38.06,33.3,44-17.25,34.12-51.74,34.61S259.06,552.4,253.11,535.15Z" transform="translate(-145.67 -248.62)"/><path class="cls-7" d="M256,538.48a105.51,105.51,0,0,1,50.56-13.1c24.7,0,55.6,13.1,55.6,13.1s-12,31-49.86,31.28S258.94,549.48,256,538.48Z" transform="translate(-145.67 -248.62)"/><path class="cls-8" d="M270.39,535.18s23.79-12.26,38.65-11.66,38.66,11.66,38.66,11.66" transform="translate(-145.67 -248.62)"/><rect class="cls-9" x="286.17" y="124.29" width="24.1" height="46.18" rx="10.85"/><rect class="cls-9" x="2" y="124.29" width="24.1" height="46.18" rx="10.85"/><rect class="cls-10" x="14.05" y="102.96" width="21.7" height="88.85" rx="8.04"/><rect class="cls-10" x="422.19" y="349.42" width="21.7" height="88.85" rx="8.04" transform="translate(720.41 539.08) rotate(-180)"/><path class="cls-11" d="M227.34,345.29s11.52,65.34,23.87,82L271,438.43s-2.51-102.71,0-103.12S233.12,339.24,227.34,345.29Z" transform="translate(-145.67 -248.62)"/><path class="cls-11" d="M378.55,343.21s-11.23,65.89-23.28,82.71L336,437.13s2.45-103.56,0-104S372.92,337.11,378.55,343.21Z" transform="translate(-145.67 -248.62)"/><rect class="cls-10" x="6.78" y="200.77" width="41.36" height="37.04" rx="16.53"/><path class="cls-12" d="M164.49,453.69a28.26,28.26,0,0,1,3.94,13.43c.21,6.62-3,15-3,15A14.3,14.3,0,0,1,156.58,469C156.2,458.9,161.56,454.58,164.49,453.69Z" transform="translate(-145.67 -248.62)"/><rect class="cls-10" x="411.16" y="449.39" width="41.36" height="37.04" rx="16.53" transform="translate(718.01 687.21) rotate(180)"/><path class="cls-12" d="M440.48,482.13a28.26,28.26,0,0,1-3.94-13.43c-.21-6.62,3-15,3-15a14.3,14.3,0,0,1,8.81,13.09C448.77,476.93,443.4,481.24,440.48,482.13Z" transform="translate(-145.67 -248.62)"/><path class="cls-13" d="M171.05,456.32s4.24,7.23,4,11.75-4,11.75-4,11.75" transform="translate(-145.67 -248.62)"/><path class="cls-13" d="M176.68,456.16s4.15,7.23,3.95,11.75-3.95,11.75-3.95,11.75" transform="translate(-145.67 -248.62)"/><path class="cls-13" d="M183.11,456.16s4.07,7.23,3.88,11.75-3.88,11.75-3.88,11.75" transform="translate(-145.67 -248.62)"/><path class="cls-13" d="M433.08,480.24s-4.43-7.54-4.21-12.25,4.21-12.25,4.21-12.25" transform="translate(-145.67 -248.62)"/><path class="cls-13" d="M427.22,480.4s-4.34-7.53-4.13-12.24,4.13-12.25,4.13-12.25" transform="translate(-145.67 -248.62)"/><path class="cls-13" d="M420.51,480.4s-4.25-7.53-4-12.24,4-12.25,4-12.25" transform="translate(-145.67 -248.62)"/><path class="cls-14" d="M255.46,261.94s5.76,17.07,8.72,27.92,6.91,28.42,6.91,28.42" transform="translate(-145.67 -248.62)"/><path class="cls-15" d="M346.09,263.45s-5,16.94-7.67,27.62S331.87,319,331.87,319" transform="translate(-145.67 -248.62)"/></svg>